HIERARCHY
ROOT Hips
{
	OFFSET 0.000000 0.000000 0.000000
	CHANNELS 6 Xposition Yposition Zposition Zrotation Yrotation Xrotation 
	JOINT LHipJoint
	{
		OFFSET 0.000000 0.000000 0.000000
		CHANNELS 3 Zrotation Yrotation Xrotation
		JOINT LeftUpLeg
		{
			OFFSET 1.363060 -1.794630 0.839290
			CHANNELS 3 Zrotation Yrotation Xrotation
			JOINT LeftLeg
			{
				OFFSET 2.448110 -6.726130 0.000000
				CHANNELS 3 Zrotation Yrotation Xrotation
				JOINT LeftFoot
				{
					OFFSET 2.562200 -7.039590 0.000000
					CHANNELS 3 Zrotation Yrotation Xrotation
					JOINT LeftToeBase
					{
						OFFSET 0.157640 -0.433110 2.322550
						CHANNELS 3 Zrotation Yrotation Xrotation
						End Site
						{
							OFFSET 0.000000 0.000000 0.000000
						}
					}
				}
			}
		}
	}
	JOINT RHipJoint
	{
		OFFSET 0.000000 0.000000 0.000000
		CHANNELS 3 Zrotation Yrotation Xrotation
		JOINT RightUpLeg
		{
			OFFSET -1.305520 -1.794630 0.839290
			CHANNELS 3 Zrotation Yrotation Xrotation
			JOINT RightLeg
			{
				OFFSET -2.542530 -6.985550 0.000000
				CHANNELS 3 Zrotation Yrotation Xrotation
				JOINT RightFoot
				{
					OFFSET -2.568260 -7.056230 0.000000
					CHANNELS 3 Zrotation Yrotation Xrotation
					JOINT RightToeBase
					{
						OFFSET -0.164730 -0.452590 2.363150
						CHANNELS 3 Zrotation Yrotation Xrotation
						End Site
						{
							OFFSET 0.000000 0.000000 0.000000
						}
					}
				}
			}
		}
	}
}
MOTION
Frames: 22
Frame Time: 0.008333
4.403285 17.362878 1.180830 13.854729 -85.500288 8.934382 -10.631515 0.466153 -0.308861 -9.379378 6.605585 -22.277923 -2.485207 -1.374281 -4.918968 0.753552 7.955281 4.826705 2.296200 -0.000000 -39.398200 9.823638 0.509669 -1.086900 2.503504 -7.381969 -18.806164 2.306450 1.498016 -4.140417 -1.038764 -7.904085 7.309820 -2.955300 -0.000000 -63.426600
4.405095 17.364013 1.172216 12.457881 -83.958374 10.162086 -10.673234 0.440921 -0.133514 -9.191927 5.771692 -22.169060 -2.465445 -1.364673 -4.938068 0.698733 7.493659 5.159728 2.214100 0.000000 -39.682000 9.788207 0.466976 -1.275531 2.603903 -8.174945 -18.330345 2.274761 1.491394 -4.112471 -1.168496 -8.580205 7.047066 -3.113400 -0.000000 -63.162600
4.405878 17.365172 1.162545 11.522589 -82.437436 10.907338 -10.699837 0.421708 0.041795 -9.010858 4.975463 -22.046359 -2.450780 -1.357047 -4.952872 0.643113 7.034677 5.491346 2.129700 0.000000 -39.967200 9.768054 0.417097 -1.443838 2.698334 -8.936662 -17.851381 2.239588 1.481736 -4.077955 -1.299441 -9.255117 6.791843 -3.267500 -0.000000 -62.894000
4.405569 17.366509 1.151912 10.860864 -80.965408 11.356037 -10.715946 0.408868 0.214920 -8.840085 4.228124 -21.905492 -2.440469 -1.350907 -4.964467 0.588253 6.589425 5.818418 2.045400 0.000001 -40.245201 9.759098 0.360240 -1.589750 2.781900 -9.653042 -17.372684 2.201257 1.469054 -4.032811 -1.429615 -9.919951 6.548386 -3.416300 0.000001 -62.623300
4.404529 17.367956 1.140455 10.361151 -79.565507 11.616375 -10.724636 0.400964 0.382112 -8.677338 3.536918 -21.738554 -2.432914 -1.345883 -4.974450 0.536180 6.170332 6.133489 1.963500 -0.000000 -40.512999 9.758152 0.296922 -1.713070 2.852657 -10.307656 -16.892492 2.159631 1.453108 -3.974921 -1.558058 -10.570313 6.317314 -3.558901 0.000000 -62.355500
4.402912 17.369526 1.128206 9.974857 -78.258509 11.735313 -10.727139 0.397146 0.539706 -8.524563 2.907483 -21.539783 -2.427203 -1.341775 -4.982703 0.488300 5.790213 6.432052 1.887500 -0.000000 -40.764300 9.764048 0.228238 -1.813708 2.906759 -10.888647 -16.411716 2.114503 1.433431 -3.902550 -1.683357 -11.198574 6.099379 -3.693900 0.000000 -62.093900
4.400501 17.371404 1.115203 9.679852 -77.060264 11.738625 -10.724142 0.397491 0.685851 -8.386445 2.347052 -21.308312 -2.423527 -1.339039 -4.991986 0.445629 5.455908 6.715195 1.819700 -0.000000 -40.989800 9.776757 0.154610 -1.890290 2.940831 -11.390117 -15.935513 2.066092 1.409881 -3.815659 -1.803734 -11.795801 5.898160 -3.819900 0.000000 -61.841400
4.397427 17.373587 1.101436 9.457710 -75.980760 11.647163 -10.716773 0.400670 0.817921 -8.262496 1.855126 -21.040651 -2.420928 -1.337649 -5.004758 0.409237 5.175952 6.981176 1.762600 0.000000 -41.186800 9.795112 0.077267 -1.944580 2.953689 -11.806815 -15.462669 2.014430 1.382623 -3.717888 -1.918446 -12.358574 5.713872 -3.936500 -0.000000 -61.600500
4.393827 17.376080 1.086811 9.300375 -75.022769 11.471232 -10.705912 0.405599 0.934558 -8.154309 1.428864 -20.736569 -2.419017 -1.337740 -5.024663 0.379889 4.954449 7.231844 1.717700 0.000001 -41.351700 9.818265 -0.002371 -1.979030 2.944228 -12.141619 -14.993984 1.960003 1.352003 -3.614137 -2.026506 -12.882263 5.546751 -4.043100 -0.000000 -61.373200
4.389487 17.378928 1.071254 9.206973 -74.181433 11.219299 -10.692440 0.411732 1.036344 -8.062575 1.060798 -20.398720 -2.417583 -1.339535 -5.054988 0.358070 4.792983 7.471757 1.686300 0.000000 -41.482000 9.845531 -0.083555 -1.995907 2.912773 -12.401516 -14.529393 1.903380 1.318963 -3.513595 -2.127360 -13.365618 5.399039 -4.140400 0.000000 -61.159700
4.384248 17.382216 1.054687 9.177438 -73.444595 10.898094 -10.677084 0.418536 1.125226 -7.987801 0.739071 -20.031505 -2.416549 -1.343264 -5.099861 0.343756 4.690090 7.707189 1.668500 -0.000000 -41.576800 9.876251 -0.165393 -1.998466 2.860368 -12.600544 -14.069212 1.845487 1.284628 -3.426631 -2.220505 -13.807790 5.272242 -4.229099 -0.000000 -60.959799
4.377956 17.385895 1.037019 9.211001 -72.793320 10.515595 -10.660443 0.425479 1.204409 -7.929645 0.447597 -19.642295 -2.415852 -1.349023 -5.162923 0.336887 4.641790 7.945254 1.663900 0.000000 -41.636500 9.909621 -0.246838 -1.990846 2.789658 -12.757659 -13.614368 1.787539 1.250296 -3.363734 -2.305624 -14.209157 5.167462 -4.310200 0.000000 -60.773299
4.370096 17.390089 1.018283 9.306568 -72.204283 10.083721 -10.642784 0.432896 1.279214 -7.886469 0.167874 -19.239966 -2.415627 -1.357073 -5.246969 0.337163 4.642323 8.193873 1.671800 0.000000 -41.662901 9.945431 -0.327908 -1.975957 2.704416 -12.894327 -13.165462 1.730775 1.217637 -3.337508 -2.382661 -14.572435 5.087902 -4.385699 0.000000 -60.598601
4.360552 17.394803 0.998490 9.455089 -71.651650 9.616108 -10.624101 0.440719 1.355126 -7.855623 -0.119869 -18.834554 -2.415807 -1.367319 -5.353694 0.344070 4.684804 8.460125 1.691100 0.000000 -41.659000 9.983288 -0.408163 -1.957594 2.609429 -13.034057 -12.723616 1.676598 1.188011 -3.357742 -2.451550 -14.900197 5.036259 -4.457500 0.000001 -60.435000
4.348851 17.400047 0.977835 9.648825 -71.112134 9.130289 -10.601875 0.447905 1.435754 -7.835788 -0.437320 -18.503419 -2.415089 -1.371917 -5.343473 0.351282 4.759813 8.668910 1.720500 -0.000000 -41.629500 10.023117 -0.487157 -1.938933 2.510080 -13.200108 -12.291101 1.626568 1.163054 -3.431432 -2.511995 -15.194214 5.014612 -4.527400 -0.000000 -60.282300
4.334956 17.405862 0.956601 9.868145 -70.565300 8.647146 -10.573825 0.453007 1.524062 -7.824996 -0.802698 -18.322323 -2.411137 -1.362921 -5.076598 0.352138 4.857749 8.743781 1.758400 0.000000 -41.579700 10.064807 -0.564651 -1.922434 2.412216 -13.411770 -11.870183 1.582039 1.143885 -3.562084 -2.563900 -15.457308 5.025958 -4.597200 -0.000000 -60.140701
4.318645 17.412221 0.935156 10.097110 -69.992846 8.189707 -10.543849 0.459332 1.628039 -7.814283 -1.221582 -18.181090 -2.405747 -1.353799 -4.800501 0.355271 4.974147 8.828678 1.803200 -0.000000 -41.515600 10.108567 -0.641002 -1.911069 2.322137 -13.684801 -11.465309 1.544293 1.130550 -3.748669 -2.607384 -15.690778 5.071565 -4.667800 -0.000000 -60.011899
4.300166 17.419070 0.913982 10.313042 -69.386219 7.779662 -10.511786 0.466958 1.749631 -7.798590 -1.696468 -18.083417 -2.398755 -1.344409 -4.519023 0.359773 5.100569 8.925399 1.852900 0.000000 -41.443500 10.154146 -0.716090 -1.906592 2.245610 -14.027263 -11.080842 1.514395 1.122929 -3.984681 -2.642493 -15.895816 5.151749 -4.739899 -0.000000 -59.897300
4.279798 17.426289 0.893525 10.499334 -68.742962 7.430709 -10.477242 0.476164 1.889842 -7.772630 -2.226401 -18.024593 -2.390036 -1.335168 -4.240615 0.365100 5.233324 9.035851 1.906700 0.000001 -41.369700 10.201742 -0.790545 -1.909362 2.186519 -14.441120 -10.719916 1.493011 1.120170 -4.258985 -2.669166 -16.071197 5.264218 -4.812500 0.000001 -59.801500
4.257911 17.433766 0.874427 10.639403 -68.069909 7.160144 -10.440901 0.486440 2.045638 -7.732751 -2.796624 -18.008298 -2.379938 -1.325854 -3.965137 0.370162 5.360569 9.154913 1.960600 0.000000 -41.299700 10.250211 -0.864006 -1.919298 2.150170 -14.917828 -10.390297 1.480699 1.121514 -4.557119 -2.687824 -16.217729 5.405553 -4.885100 -0.000001 -59.724700
4.235222 17.441260 0.857018 10.727654 -67.376974 6.966172 -10.403019 0.496957 2.213659 -7.675697 -3.397751 -18.021164 -2.368287 -1.317201 -3.703710 0.375111 5.485059 9.281316 2.015500 -0.000000 -41.239700 10.299055 -0.936745 -1.936249 2.136216 -15.446446 -10.093851 1.477224 1.124981 -4.861274 -2.698744 -16.332514 5.567660 -4.954200 0.000000 -59.672499
4.212252 17.448545 0.841841 10.757716 -66.680101 6.857106 -10.365414 0.506031 2.386498 -7.601154 -4.002554 -18.069085 -2.355960 -1.309039 -3.450784 0.378658 5.592841 9.404840 2.065800 -0.000001 -41.193900 10.346108 -1.008420 -1.958236 2.148431 -16.003954 -9.839662 1.482141 1.129597 -5.155892 -2.703343 -16.419183 5.743160 -5.019000 -0.000000 -59.643101
